# xmcd CD database file
#
# Track frame offsets:
#	150
#	20875
#	43117
#	58275
#	79957
#	99982
#	123870
#	137865
#	155157
#	171927
#	192617
#
# Disc length: 3029 seconds
#
# Revision: 0
# Processed by: cddbd v1.5.2PL0 Copyright (c) Steve Scherf et al.
# Submitted via: CDex 1.70beta2
#
DISCID=a40bd30b
DTITLE=ヘンリー川原 - enDOLPHIN Altred State of Consciousness
DYEAR=1995
DGENRE=New Age
TTITLE0=サターン
TTITLE1=投影I
TTITLE2=エンドルフィンA.S.C
TTITLE3=ネプチューン
TTITLE4=イオ
TTITLE5=蒼きユーラナス
TTITLE6=サイキック・リアリティ
TTITLE7=ジュピター
TTITLE8=ミランダ
TTITLE9=投影II
TTITLE10=ドルフィニック・メディテイション
EXTD=YEAR: 1995
EXTT0=
EXTT1=
EXTT2=
EXTT3=
EXTT4=
EXTT5=
EXTT6=
EXTT7=
EXTT8=
EXTT9=
EXTT10=
PLAYORDER=
